<svg width="179" height="179" viewBox="0 0 179 179" fill="none" xmlns="http://www.w3.org/2000/svg">
<circle cx="89.5" cy="89.5" r="89.5" fill="#D3DCDF"/>
<g clip-path="url(#clip0)">
<path d="M93.7029 93.0098C91.9388 93.6056 90.0278 93.6056 88.2637 93.0098" stroke="#8FB9C7" stroke-width="2.75" stroke-linecap="round" stroke-linejoin="round"/>
<path d="M88.2639 81.1358C87.9759 80.6845 87.5708 80.3197 87.092 80.0802C86.6131 79.8408 86.0782 79.7357 85.5443 79.776C85.0104 79.7357 84.4756 79.8408 83.9967 80.0802C83.5178 80.3197 83.1128 80.6845 82.8247 81.1358" stroke="#8FB9C7" stroke-width="2.75" stroke-linecap="round" stroke-linejoin="round"/>
<path d="M99.1423 81.1358C98.8543 80.6845 98.4493 80.3197 97.9704 80.0802C97.4915 79.8408 96.9566 79.7357 96.4227 79.776C95.8888 79.7357 95.354 79.8408 94.8751 80.0802C94.3962 80.3197 93.9912 80.6845 93.7031 81.1358" stroke="#8FB9C7" stroke-width="2.75" stroke-linecap="round" stroke-linejoin="round"/>
<path d="M122.259 119.292V116.572C122.258 114.356 121.58 112.194 120.316 110.374C119.053 108.554 117.263 107.163 115.188 106.387L100.502 101.451" stroke="#8FB9C7" stroke-width="2.75" stroke-linecap="round" stroke-linejoin="round"/>
<path d="M81.4649 101.451L66.779 106.387C64.7034 107.163 62.9141 108.554 61.6504 110.374C60.3868 112.194 59.7091 114.356 59.708 116.572V119.292" stroke="#8FB9C7" stroke-width="2.75" stroke-linecap="round" stroke-linejoin="round"/>
<path d="M105.694 103.197C104.407 106.019 102.336 108.41 99.7279 110.087C97.1197 111.765 94.0842 112.656 90.9833 112.656C87.8825 112.656 84.847 111.765 82.2388 110.087C79.6306 108.41 77.5597 106.019 76.2729 103.197" stroke="#8FB9C7" stroke-width="2.75" stroke-linecap="round" stroke-linejoin="round"/>
<path d="M70.5864 105.106V119.292" stroke="#8FB9C7" stroke-width="2.75" stroke-linecap="round" stroke-linejoin="round"/>
<path d="M111.38 105.106V119.292" stroke="#8FB9C7" stroke-width="2.75" stroke-linecap="round" stroke-linejoin="round"/>
<path d="M103.51 89.8384C103.51 89.8384 103.33 78.4976 103.254 73.7573C103.251 73.5373 103.194 73.3215 103.089 73.1283C102.983 72.9351 102.833 72.7703 102.65 72.6481C102.467 72.5259 102.257 72.4499 102.038 72.4266C101.82 72.4033 101.599 72.4334 101.394 72.5144C100.219 72.9777 99.012 73.3549 97.7823 73.6431C96.8903 73.8525 98.7015 66.1342 97.7823 66.2593C95.8408 67.7502 94.0623 69.4422 92.4764 71.3069C91.5304 72.31 90.3463 73.0576 89.034 73.4803C87.7216 73.903 86.3237 73.9871 84.9702 73.7247C83.4713 73.4529 81.9996 73.0479 80.5726 72.5144C80.3683 72.4335 80.1474 72.4033 79.9288 72.4265C79.7103 72.4496 79.5006 72.5254 79.3177 72.6473C79.1348 72.7692 78.9842 72.9336 78.8788 73.1265C78.7734 73.3193 78.7163 73.5348 78.7124 73.7546C78.6335 78.503 78.4404 89.8193 78.4404 89.8193C79.3868 92.5237 81.0473 94.9215 83.246 96.7587C85.4446 98.5958 88.0994 99.8038 90.9289 100.254C93.7664 99.8037 96.4308 98.5992 98.6439 96.767C100.857 94.9347 102.537 92.5419 103.51 89.8384V89.8384Z" stroke="#8FB9C7" stroke-width="2.75" stroke-linecap="round" stroke-linejoin="round"/>
<path d="M101.136 94.2138C100.421 96.6098 111.381 95.3615 111.381 92.0952V77.1373C111.381 71.7277 109.232 66.5396 105.406 62.7144C101.581 58.8892 96.3932 56.7402 90.9835 56.7402C85.5739 56.7402 80.3858 58.8892 76.5606 62.7144C72.7354 66.5396 70.5864 71.7277 70.5864 77.1373V92.0952C70.5864 95.3587 81.5519 96.6288 80.8149 94.2355" stroke="#8FB9C7" stroke-width="2.75" stroke-linecap="round" stroke-linejoin="round"/>
</g>
<g clip-path="url(#clip1)">
<path d="M92.7136 91.0322C90.9495 91.6281 89.0385 91.6281 87.2744 91.0322" stroke="white" stroke-width="2.75" stroke-linecap="round" stroke-linejoin="round"/>
<path d="M87.2747 79.1583C86.9866 78.7069 86.5816 78.3422 86.1027 78.1027C85.6238 77.8633 85.089 77.7581 84.5551 77.7985C84.0212 77.7581 83.4863 77.8633 83.0074 78.1027C82.5285 78.3422 82.1235 78.7069 81.8354 79.1583" stroke="white" stroke-width="2.75" stroke-linecap="round" stroke-linejoin="round"/>
<path d="M98.1531 79.1583C97.865 78.7069 97.46 78.3422 96.9811 78.1027C96.5022 77.8633 95.9674 77.7581 95.4335 77.7985C94.8996 77.7581 94.3647 77.8633 93.8858 78.1027C93.407 78.3422 93.0019 78.7069 92.7139 79.1583" stroke="white" stroke-width="2.75" stroke-linecap="round" stroke-linejoin="round"/>
<path d="M121.27 117.314V114.595C121.268 112.379 120.591 110.216 119.327 108.396C118.064 106.576 116.274 105.185 114.199 104.41L99.5127 99.4736" stroke="white" stroke-width="2.75" stroke-linecap="round" stroke-linejoin="round"/>
<path d="M80.4757 99.4736L65.7897 104.41C63.7141 105.185 61.9248 106.576 60.6612 108.396C59.3976 110.216 58.7199 112.379 58.7188 114.595V117.314" stroke="white" stroke-width="2.75" stroke-linecap="round" stroke-linejoin="round"/>
<path d="M104.704 101.22C103.418 104.041 101.347 106.433 98.7386 108.11C96.1304 109.787 93.095 110.679 89.9941 110.679C86.8932 110.679 83.8577 109.787 81.2495 108.11C78.6413 106.433 76.5704 104.041 75.2837 101.22" stroke="white" stroke-width="2.75" stroke-linecap="round" stroke-linejoin="round"/>
<path d="M69.5972 103.129V117.314" stroke="white" stroke-width="2.75" stroke-linecap="round" stroke-linejoin="round"/>
<path d="M110.391 103.129V117.314" stroke="white" stroke-width="2.75" stroke-linecap="round" stroke-linejoin="round"/>
<path d="M102.521 87.8608C102.521 87.8608 102.341 76.52 102.265 71.7798C102.261 71.5598 102.205 71.3439 102.099 71.1507C101.994 70.9575 101.844 70.7928 101.661 70.6705C101.478 70.5483 101.268 70.4723 101.049 70.449C100.83 70.4258 100.609 70.4559 100.405 70.5369C99.2298 71.0002 98.0227 71.3774 96.7931 71.6655C95.901 71.8749 97.7123 64.1567 96.7931 64.2818C94.8515 65.7727 93.073 67.4646 91.4871 69.3294C90.5412 70.3324 89.357 71.0801 88.0447 71.5028C86.7324 71.9255 85.3345 72.0095 83.981 71.7471C82.482 71.4753 81.0103 71.0703 79.5833 70.5369C79.379 70.456 79.1581 70.4258 78.9395 70.4489C78.721 70.4721 78.5113 70.5478 78.3284 70.6698C78.1456 70.7917 77.995 70.9561 77.8896 71.1489C77.7841 71.3418 77.727 71.5573 77.7231 71.777C77.6443 76.5255 77.4512 87.8418 77.4512 87.8418C78.3975 90.5461 80.0581 92.944 82.2567 94.7811C84.4554 96.6183 87.1102 97.8262 89.9396 98.2769C92.7771 97.8261 95.4416 96.6217 97.6546 94.7894C99.8676 92.9572 101.548 90.5644 102.521 87.8608V87.8608Z" stroke="white" stroke-width="2.75" stroke-linecap="round" stroke-linejoin="round"/>
<path d="M100.147 92.2362C99.4313 94.6322 110.391 93.3839 110.391 90.1177V75.1598C110.391 69.7501 108.242 64.5621 104.417 60.7369C100.592 56.9117 95.4039 54.7627 89.9943 54.7627C84.5846 54.7627 79.3965 56.9117 75.5713 60.7369C71.7461 64.5621 69.5972 69.7501 69.5972 75.1598V90.1177C69.5972 93.3812 80.5626 94.6513 79.8256 92.258" stroke="white" stroke-width="2.75" stroke-linecap="round" stroke-linejoin="round"/>
</g>
<defs>
<clipPath id="clip0">
<rect width="65.2707" height="65.2707" fill="white" transform="translate(58.3481 55.3809)"/>
</clipPath>
<clipPath id="clip1">
<rect width="65.2707" height="65.2707" fill="white" transform="translate(57.3589 53.4033)"/>
</clipPath>
</defs>
</svg>
